P1
# Created by GIMP version 2.10.36 PNM plug-in
39 36
0000000000000000000000000000000000000000000000000000000000000000000000
0000000000000000000000000000000000000000000000000000000000000000000000
0000000000000000000000000000000000000000000000000000000000000000000000
0000000000000000000000000000000000100000000000000000000000000000000000
0000000000000000000000000000000000000000000000000000000000000000000000
0000111000000000000000000000000000000000000111000000000000000000000000
0000000000001110000000000000000000000000000000000001110000000000000000
0000000000000000000011100000000000000000000000000000000000011110000000
0000000000011111000000000000110000000100000000011111111110000000000111
0000000000000001111100011110000000001110000000000000001110000000111000
0000011100000000000000111000000001110000000011100000000000000111000000
0001110000000111000000000000001110000000001110000000111000000000000011
1000000000011100000001110000000000000111100000000011100000001110000000
0000000110000000000111000000011100000000000001111000000000111000000011
1000000000000001100000000001110000000111000000000000001110000000001110
0000001110000000000000011100000000111000000001110000000000000011110000
0001110000000011101010101010000011110000011100000000011111111111111000
0011111111111000000000111111111111111000001111111100000000000000000000
0000100000000000000000000000000000000000000000000000000000000000000000
0000000000000000000000000000000000000000000000000000000000000000000000
0000