P1
# Created by GIMP version 2.10.36 PNM plug-in
344 109
0000000000000000000000000001000000000000000000000000000000000000000000
0000000010000000000000000010000000010000000000000000000000000000000000
0000010000000000000000000000000000000000000010100000000000000000000000
0000000000000000000000000000000000000000000000000000000000000000000000
0000000001000001000000000000010000000000000000000001000100000000000000
0000000000000000000000000000000000000000000000000100000000000000000000
0000000000000000010000000000000000000000000000000000000000000000000000
0010000000000000000000000000001000000000000000000000000000000000000000
0000000000000000010000010000001000000000000000000010000000000100000000
0000000000000000000000000100000000000000000000000000000000000000000000
0000000000000000000000000000000000000000000000000000000100000000000000
0000000000000000000000000000000000000000000000000000000000000000000100
0000000000000000000000000000000000000000000000000000000000000000000000
0000000000000010000000000000000000000000000000000000000000000000000000
0000000000000000000000000000000000000000000000000000000000000000000000
0000000000000000000000000000000000000000000000000000000000000100000000
0000000000000000000000000000000000000000000000000001000000000000000100
0000010000000000000000000000000000000000000000000001000000000000000000
0000000000000000000000010000000000000000000000000000000100000100100000
0000000000000000000000000010000000000000001000000000000000000000000000
0000000000000000001000000000000000000000000000000000000000000000000000
0010100000000000000000000000000000000100000000000000000000000000000000
0000000000000000000000000000000000000000000000000000000000010000000000
0000000000000000000000000000000000000000000000000000000000000000000000
0000000000000000000000000000000000000000000000000000000001000000000000
0000000000000000000000000000000000000010000000000000000000000000000000
0000000000010010000000000000000000000000000000000000000000000000000000
0000000000000000000000000000000000000000000000000000000100000000000010
0000000000000100100000000100000000000000000000000000000000000000000000
0000000000000001000000000000000000000000000000000000000000000000000000
0000000000000000000000000000000000000000000000000000000000000000000000
0000000000000000000000000000000000000000000000000000000000000000000000
0000000000000000000000000000000000000000000100001000000000000000000000
0000000000000000000010000000000000000010000000100000000000000000000000
0000000000000000000000000000000000000000000000000000000000000000000000
0001000000000000000000000000000000000000000000000000000000000000000000
0000000000001000000000000000000000000000000000000000000000000000000000
0000000000000000000000000000000000000000000000000000000100000000000000
0000000001000000000000000000000000000000000000000000000000000000000000
0000000000000000001000000000000000000000000000000000000000000000000000
0000001000000000000100000000000000000000000000000000000000000001000000
0000000000000000000000000000000000000000000000000000000000000000000000
0000010000000000000000000000000000000000000000000000000000000000000000
0000000000001000000000000000000000000000000000000000000000000000000000
0000000000000000000000010100000000000000000010000000000000000000000000
0000000000000000000000000000000000000000000000000000000000000000000000
0000000000000000100000000000000000000000000000000000000000000000000000
0000000000000000000000000000000000000000000000000000100000000000000000
0000000000000000000000000000000000000000000000000000000000000000000000
0000000000000000000010000100000000000000000000000000000000000000000001
0000000000000000000000000000000000000100000000000000000000000000000000
0000010000000000000000000000000000000000000000000000100000000000000000
0000000000000000000000000001000000000000000000000000000000000000000000
0000000000000000000000000000000000000000000000000000000000000000000000
0000000000000000000000000000000000000000000000000000010100000000000000
0000000000000000010000000000000000000000000000000000000000000000001000
0001000000000000000000000000000000000000000000000000000000000000000000
0000000000000000000000000000000000001000000000010000000000000000000010
0000000000000000000000000000000000000000000000000000000000000000000000
0000000000000000000000000000000000000000000000000000000000000000000000
0000001000000000000000000000000000000000000000000000000000100000000000
0000000000000000000000000000000000000100001000000000000000000000000000
0000000000000000000000000000000000000000000000000000000000000000000000
0000000000000000000000000000000000000000000000000000000000000000000000
0000000000000000000000000000000000000000000000000000000000000000000000
0000000000000000000000000000000000000100000000000000000000000000000000
0000000000000000000000000000000000000000000000000000000000000000000000
0000000000000000000000000000000000000000000000000000000000000000000000
0000100000000000010000000000000000000000000000000000000000000000000000
0000000001001000000000000000000000000000000000000000000000000000000000
0000000000000000000000000000100000000000000000000000000000000000000000
0000000000000000000000000000000000000000000000000000000000000000000000
0000000000000000000000010000000000000000000000000000000000000000000000
0000000000000000000000000000000000000000000000000000000000000000000000
0000000000000000000000000010000000000000000000000000000000000000000000
0000000000000000000000000000000000000000000000000000000000000000000000
0000000010000000000000000000000000000100000000100000000000000000000000
0000000000000000000000000000000000000000000000001000000000000000000100
0000000000000000000000000010000000000000000000000000000000000000000000
0000000000000000000000000000000000000000000000001000000000000100000000
0000000000000000000000000000000000000000000000000000000000000000000000
0000000000000000000000000000000000000000000100000000000000000000000000
0000000000000000000000000000000000000000000000000000000000000000000001
0000010000000000000000000000000000000000001000000000000000000000000000
0000000000000000000000000000000000010000000000000000000000000000000000
0000000000000000000000000000100000000000000000100000000000000000000000
0000000000000000000000000000000000000000000000000000000000000000000000
0000000000000000000000000000000001000000000000000000000000000000000000
0000000000000000000000000000000000000000000000000000000000000000000000
0000000000000000000000000000000000000000000000000000000000000000000000
0000000000000000000000000000100000000000000000000000000000000000000000
0000000001000000000000000000000000000000000000000001000000000000001000
0000000000000000000000000000000000100000000000000000000000000000000000
0000000000000000000000000010000000000100100000000000000000000000000000
0000000000000000000000000000000000000000000010000000000000000000000000
0000000000000000000000000000000000000000000000000100000000000000000000
0000000000000000000000000000000000000000000000000100000000000000000000
0000000000000000000000000000000000000000000000000000000000000000000000
0000000000000000000000000000000000000000000000000000000000000000000000
0000100000000000000000000000000001000000000000000000000000000000000000
0000000000000000000010000000000000000000000000100000000000000000000000
0000000000000000000000000000000000000000000000000000000000000000000000
0000000000000000000000000000000000000000000000000000000000000000000000
0000000000000000000000000000000000000000000000000000000000000000000000
0000000000000010000000000000000000000010000000000000000000000000000000
0000000000010000000000000000000000000000000000000000000000000000000000
0000000000000000000000001000000000000000000000000000000000000000000000
0000000000000000000000000000000000000000001000000000000000000000000000
0000001000000000000000000000000000000000000000000000000000000000000000
0000000000000000000000000000000000000000000100000000000000000000000000
0000000000000000000000000000000000000001000000000000000000000000000000
0000000000000000000000000000000000000000000000000000000000000000000000
0000000010000000000000000000000000000000000000000000000000000000000000
0000000000000000000000000000000000000000000000000000000000000000010000
0000000000000000000000000000000010000000000000001000000000001000000000
0000000100000000000000000000000000000000000000000010100000000000100000
0000000000000001000000000000000000000000000000000000000000000000000000
0000010000000000000000000001000000000100000000000000010000000000000000
0001000000000000000000000000000000000000000000000000000000000000000000
0000000000000000000000000000000000000100000000000010000000000000010000
0000000000000000000000010000000000000000000000000000000000000000000000
0000000000000000000000100000000000000000001000000000000000000000000000
0000000000000000000000000000000000000000000000000100000000000000000000
0000000000000000000000000000000000100000000000000000000000000000000000
0000000000011000000000000000000000000000000000000000000000000000000000
0010000001000000000000000000000000000000000000000000000000000000000000
0000000000000000000000000000000000000010100000100000000000000000000000
0000000000000000000100000000000000000000000000000000000000000000000000
0000000000100001000000000100000000000000000000000000001000000000000000
0000000000000000000000000100000000000000000000000000000000000000000000
0100000000000000000000000000000000000000000000010000000000000000000000
0000000000000000000000000000000000000000000000000000000000000000000000
0000000000000000000000000000000000000010000000000000000000000100000000
0000001000000000000000000100000000000000000000000000000000000000000000
0000000000000000100000000000000000000000000000000000000100000000000000
0000000000000000100000000000010000001000000000000000000000000000000000
0000000000000000000000000000000000000000000000000000000000000000000000
0000000000000000000000000000000000000000000000000000000000000000000000
0000000000000000000000000000000000000000000000000000000000000000000000
0000000000000000000000000000000000010000001000000000000000000000100000
0000000000000000000000000000000000000000000000000000000000000000000100
0000000000000000000000000000000000000000000000000000000000000001000000
0000000000000000000000000000000000000000000000000000000000000000010000
0000000000000000000000000000000000000000000000000000000000000000000000
0000000000000000000000000000000000000000000000010000000000000000000000
0000000000000000000000000000000000100000000000000000000000000000000000
0000000000000000000000000000000000000000000000000000000000000000000000
0000000000000000000000000000000000000000000000000010000000000000000000
0000000000000000000010000000000000000000000000000000000000000000000000
0000000000000000000000000000000000000000000000000000000000000000000000
0000000000000000000000000000000000000000000000000000000000000000000001
0000000000000000000000000000000100000000000010000000000000000000000000
0000000000000000000000000000000010000000000000000000100000000000000000
0000000100000000000000000000000000000000000000000000000000000010000000
0000000000000000000000000000000000000000001000000000000000000000000000
0000000000000000000000000000000000000000000000000000000000000000000000
0000000000000000010001000000000000000000000000000000000000000000001000
0000001000000000000000000000000000000000000000000000000000000000000000
0000000000000000000000000000000000000000000000000000000100000000000000
0000000000000000000000000000000000100000000000000000000000000000000000
0000000000010000000000000000000000000001000000000000000000000000000000
0000000000000000000000000000000000000000000000000000000000000000000000
0000000000000000000000000000000000000000000000000010000000000000000000
0000000000000000000000000000000000000000001000000000000000000000000000
0000000000000000000000000000000000000000000000000000000000000000000000
0000000000000000000000000000000000000000000001000000000000000000100000
0000000000000000000000000000000000000000000000000000000001000000000000
0000000000000000000000000000000000000100000000000000000000000000000000
0000000000000000000100000000000000000000000000000000000000000000000000
0000000000000000100000000000000000000000000000100000000000000000000000
0000000000000000000000100000000000000000000000010000000000000000000000
0000000000001000000001000000000000000000000000000000000000000000000001
0000000000000000000000000000000000000001000000000000000000000000000000
0000000100000000000000000000000000000000000000000000000000000000000000
0011100000000000000000000000000000001000000000000000000000000000000000
0000000000000000000000100000001000100000000000000000111000000000000000
0000000011100000000000000000000000000100000000000000000000000000000000
0000000000000000000000111000000000000000000000000000000001000000000000
0000000000000000000000000000000000000000000100000000000000000000001110
0000000000000000000000000000000000000000000001000000000000000000000000
0000000000000000000000000000000000001000000100111000000000000000000000
0011100000000000000000000000000000000000000000000000000000000000000000
0000000000000000111010000000000000000100010000000000000000000000000000
0000000000000000000000000100000000100000010000000000000000000110000000
0000000000000000000000000000000000000000000000000000000000000000000000
0000000000000000000000000000000000000000111000000000000000000000001110
0000000000000000000000100000000000000000000000000000000000010000010000
0000000000111000000000000000000000000000000000000000000000000000000000
0000000000000000000000000000000000000000001000000000000000000000000000
0000000000100000000000000000000000000000000000000000000000000000000000
0000000000000000000000000000000000011000000000000100000000001110000100
0000000000000000000000000000000000000000000000000000000000000000000000
0000111000000000000000000000000000000000000000000000000010000000000000
0000000000000000000000000000000000000000000100000000000000000000000001
0000000000000000000000000000000000001000000000000000000000000000000000
0000000000000000000000000000111000000000000000000000001110000000000000
0000000000000000001000000000000000000000000000000000000000000000000011
1000000000000000000000000000000000000000000000000000000000000000000000
0000000000000010000100000000000001000000000000000000000000000000000000
0000000000000000000000000000000010000000000000010001000000000000000000
0000000000000000000000111000000000000000000000001110000000000000000000
0000000000000000000000000001000000000000000000000000000000000011100000
1000000000000011111000000000101000110000000011111000000000101000111110
0000111110000000000000000000100000001010000101000111110000000000001111
1000000010100000000101000001010001111100000111110000001000000000000000
0000000001111000111000000000011111000000001110000001000111110000000010
1000110000000000000000000000000000000000000000000000000011100000000000
0001011111011110000000111011111000011111111111000000111001111111000111
1111000000000000000100000000001110000111001111111100000001111111111000
0011100000000111000001110011111110001111111000000000001001000000000000
0111111110111000100011111111110000001110000000111111111100000011101111
1000000000000000000000000000000000000000000000000011100000000000000011
1110001111000000111011110000011110001111000000111111000111101110011110
0000000000000000000000001110000111111100111110000011111000111100001110
0000001011000001111110001111011100111000000000000000000000000000111110
0011111000000111110001111000001110000001111100011110000011101111000000
0000000000000000000000001001000000000000100011100000000000000011100000
0011100000111110100000111000000011100000111101000011111000001110000000
0000000000000100001110000111110000001110000011100000001110001110000000
0111000001111000000111110000011100000000000000000000000001111000000111
1000000111000000011100001110100001110000000111000011111000000000000000
0000000000000000000000000000000000100011100000000000000111000000001110
0000111100000001110000000011100000111100000011110000001110000000000000
0000000000001110010111100000001111000011100000001010001110000000011100
0001111000000111100000011100000000000000000000000001110000000011100000
1110000000011100001110000011100000000111000011110000000001000000000000
0000000000000000000000000000000011100000000000000111000000000111000011
1100000001110000000001110000111000000001110000000111000000000000000000
0000001110000101100000100111000011000000000000001110000000011100000111
0000100011100000001110000000000000000000000001110000000011100000111000
0000001110001110000011100000000111100011100000000000000000000010000000
1000000000000000000000000011100000000000000111000000000111000011100000
0001110000000001110000111100000011100000000111000000000000000000000000
1110000111000000000111000011110000000000001110000001011100000111100000
0111000000001110000000000000000000000001110000000011100000111000000010
1110001110000011100000000011100011100000000000000010000000000000000000
0000000000000010000011100000000000001110000000000111000011100001001111
0101010101110000111000000001110000000110000000000000000000000000111000
0111000000000111000011111100000000001110000000011100010111000000001110
0000001100000000001000000000000011100000100011100001111000000000111000
1110000111000000000011100011100000000000000000000000000000000001000000
0000000000000011100000000000001111000100000111000011110000000111111111
1111110000111000000001100000000111000000000000000000000000111000011100
1000000111000000111111110000001110000000011100000111000000001100000000
1110000001000000000000000011110000000011100001111000000000111000111000
0111100000000011100011100000000000000000000000000000000000000000000000
0000000011100000000000001110000000000111000011100001001111111111111111
0000111000000011100000001110000000000000000000000000111000011100000000
0111000000001111111100001110000000111100000111000000011100000001110000
0000000000000000000001100000000011100000110000000000111000111000001100
0000010011100011101000000000000000000000000001000000000000000000000000
0011100000000000000111000000000011000011100000000110000000000000000011
1000000001100000000011000000000000000000000000111000011100000000011100
0000000001111110001110000100011100000111000000001100000000111000000000
0000000000000011110000000011100001111000000000111000111000011110000000
0011100011100000000000000000100000000100000000000010000000000000001110
0000000000001110000000000111000011100000001111000000000000000011100000
0011110000000110000000000000000000000000111000011100000000011100000000
0000001110001110000000011100000111000000011110000000110010000000000000
0000000001100000000011100000110000000000111000111000001100000010001110
0011100000000000000000000000000000000100000000000000000100001110010000
0000000111000000000111000011100000000111000000000000000011100010000110
0000000111010000000000000000000000111000011110000000011100000000000000
1110001110000000011100000111000000001100000000111000000000000000000000
0001110000000011100000111000000000111000111000001110000000001110001110
0000000000000000000000000000000000000000000000000000001110000000100000
0111000000001110000011100001000111000000000000000011100000001110000000
0110000000000000000000000000101000011110000010111100001000000000011100
1110000000011100000111000000011100000010110000000000000000000000000111
0000000011100000111000000001110000111000001110000000111100001110000000
0000000000000100000000000000000000000000000000001110000000000000011110
0000001110000011100000000011100000001110000011100000000110000000011100
0000000000000000000000111000011110000000111000011100100000111000111100
0010111100000111000000001100000000111000000000000000001000000111010000
0111100000111100000001110000111000001101000000011100001110000000000000
0000000000000000000000000000000000000000001110101010101000001111000001
1100000011100000000011110000111110000011100000001111000000111000000000
1000000000000000111000011111100001111000001110000001111010011100000111
1100000111000100011110010001110000000000000100000000000011110000111111
0000011110000011100000111000000111100000111000011110000000000000000000
0000000000010000000010000000000000001111111111111100000111111111110000
0011100000000001111111111100000011100000000110000000011100000000000000
0000000000111000011101111111110000001111111111110000011111111100110000
0111000000001100000000111000000000000000000000000011111111110110000000
1111111111100000111000000011111111111000001110000000000000000000100000
0000000000000001000000000000001111111111111110000011111111000000001110
0000000000011111110100100011101000001110000000011000000000000000000000
0000111000011100111111100000000011111111000000001111101001110000011100
0000011100000000110000000000000000000000000000111111000110000000011111
1110000000111001000001111111100000001110000100000000000000000101000000
0000000000000000000000000000000000000000000000000000000000000000000000
0000000000000000000000000000000000000000000000000000100000000000000000
0000011100000000000000000000000000000000000000000000000000000000100000
0000000000000000000000000000000000000000000000000000000000000000000000
0000000000000000000000000000000000000000000000000000000000000000000000
0000000000000000000000000000000001000000000000000000000000000000000000
0000000000000000000000000000000000001000000000000000000000000000000001
1100000000000000000000000000000000000000000000000000000000000000000000
0000000000000000000000000000000000000000000000000000000000000000000000
0000000000000000000000000000000000000001000000000000000000000000000000
0000000000000000000000000000000000000000000000000000000000000000000000
0000000000000000000000000000000000000000000000000000000000000001110000
0000000000000000000000000000000000000000000001000000000000000000000000
0000000000000000000000000000000000000000000000000000100000000000000001
0000000000000000000000100000000000001000000000000000000000000000000000
0000010000000000000000100000000000000000000000000000000000000000000000
0000000000000000000000000000000000000000000000000000000001110000000000
0000000010000000000000000000000000000000000000000010000000000000000000
0000000000000000000000000000000000000000000000000000000000000000000000
0000000000000000000000000000000000000000000000000000000000000000000000
0000000000000000000000000000000100000000000000000000000000000010000000
0000000010000000000000000000000000000000000000000001110000000000001000
0000000000000000000000000000000000000000000000000000000000000000000000
0100000000000000000000000000000000000000000000000000000000000000000000
0000000000000000000000000000000000000000000000000000000000000000000000
0000000000000000000000000000000000000000100000000000000000000000000000
0000000000000000000000000000000000000000000001110000000000000000000000
0000000001000000000000000000000000000000000000000000000000000000100100
0000000000000000000000000000000000000000000000000000000000000000000000
0000000000000000000000000000000000000000000000000000000000000000000000
0000000000000000000000000000000000000000000000000000000000000000000000
0100000000000000000000000000000000000001110000000100000000000000010010
0000000000000000000000000000000000000000000000000000000000000000000000
0000000000000000000000000000000000000000000000000000000000000000000000
0000000010000000000000000000000001000000000001000000000000000000000000
0000000000000000000000000000000000000000000000100000000000000000000000
0000010000000000000000000000000000001000000000000000000000000000000000
0000000000000000000000000000000001000000000000000000000000000000000000
0000000000000000000000000000100000000000000000000000001000000000000000
0000000000000000000000000000000000000000000000000000000000000000000000
0000000010000000100000000000000000000000000000000000000000000000000000
0000000000000000000100000000000000000000000000000100000000000000000000
0000000000000000000000001000000000000000000000000000000000000000000000
0000000000000000000000000000000000000000000000000000000000000000000000
0000000000000000000000000000000000000100000000000000000000000000000000
0000000000000000000000000000000000000000000000001100000000000000000000
0000000000000001000000000000000000000000001000000000000000000000000000
0000000000000000000000000000000000000000000000001000000000000000000000
0000000000000000000000000010000100000000000000000000000000000000000000
0000000000000000000000000000000000010000000000000000000000000010000000
0000000000000000000000000000000000000001000000000000000000000000000000
0000000000000000000010000010000000000000000000000000000000000000000000
0000001000000000000000100000001000000000000000000000000000100000000000
0000000000000010000000000000000000000000000000000000000000000000000000
0000000000000000000100000000000000010000000000000000000000000000000000
0000000000000000000000000000000000000000000001000000000000100000000000
0000000000000000000000000000000000000000000000000000000000000010010000
0100000000000000000000000000000000000000001000000000010000000000000000
0000000000000000000000000000000000000000000000000000000000000000000000
0000000000000000000000000000000000000000000000000000000000000000000000
0000000000000010000000000000000000000000000000000000000000000000000000
0000000000000000000000000000000000000000000000000000000000000000000000
0000000000000000000000000000000000000000000000000000000000000000000000
0000000000000000000000100000000000000000000000000000000000000000000000
0000000000000000000000000000000000000000000000000000000000000001000000
0000000000000000000000000000000000000000000000000000000000000000000000
0000000000000000000000000000000000000000000000000000000000000000000000
0000000000000000000000000000000000010000000000000000000000000000000000
0000000000000000000000000000000000000000000000000100000010000000000000
0000000000000000100000000000000000000011100000111000000000000000000000
0011100000000000000000000000000000000000000111000001000000000000000000
0000000000000000100000000010000000000000100000000100000000000111000011
1000000000000000000000000000000000000000000000000000000000000000000000
0000000000000000000000000011100000000000000000000000000000000000000000
0000000000000000000000000001000011100000111000001000000000000000001110
0100000000000000000000000000000000000111000000000000000000000000000000
0000000000000000000000000000000000000000000000000000001111000011100000
0000000000000001000000000000000000000000000000000000000000000000000000
0000000000000000000011100000000000000000000000000000000000000100000000
0000000000000000000000000011100000011000000000000000000000000110000010
0000000000000000000000000000000011000000000000000000000000000001000001
0000000000000001000100000000000000000000000000100111000001100000001001
0000001000000000000000000000000000000000000000000000000000000000000000
0000000100000011100000000000000000000000001000000000000000000000000000
0000000010000000000001100000000000000000000000001000001000000000000000
0000000000000000000000000000000000000000000000000000000000000000000000
0000000000000000000000000000000000000000000111000000000000011000000000
0000000000000000001000000000000000000000000000000000000000000000000000
0000001001100000010000000000000000001001000000000000000000000000000000
0000000000000011100000000000000000000000000000000000000000000000000000
0000000000000000000000000000000000000000000000000000000000000000000000
0000000000000000000000000000000000000111000000000000011100000000000000
0010000010000000000000000000000000000000000000000000000000000000000000
0011100000000000000000001000000000000000000000000100000000000000000000
0000000011100000000000000000000100000001000000000000000000000100000000
0000000000000000000000010000000000000000000000000000000000000000000000
0000000001000000000000000000000111010000000000011000000000000000000000
0000000000000000000001000000000000000000000000000000000000000000001110
0000000000100000000000000000000000000000000000011111100000000000011110
0011100000111000010100011111000000001010000000011111000000001000011111
0000000101000010100001111000000000001111000101000000000000000000000000
0000000000001111100000000111000010100001111111000000000000000000100000
0000000000000000001111100000000000001111100000000000011110101110000000
0000000000000000000000000000000000000001111111111000000101111111101110
0000111000011100111111110000001110000011111111110000000011111111100000
0111000011100111111110000000111111110111000000000000000000000000011000
0001111111111000000111000011101001111111100000000000000000000000000000
0000000001111111111000000001110111111000000001111111101110000000000000
1000000000000000000000000000000011111000111100000011111000111110000011
1000011111110011111000001110000111110001111000000111110011110100011100
0011101110011111000001111100111111000000000000000000000000000000000111
1000111100000111000011100000111101000000000000000000000000010000000000
0011111000111100000001111000111100000011111000111110000000000000000000
0000000000000000000000000011100000011100000111100000011110000011100001
1111000000111000001110000111000000011100000111000000111000011100001111
1000000111000011110000001111000000000000000000000000000000001110000000
1110000111000011100000111000000000000000000000000000000000000000001110
0000001110010011100000001110000111100000110110000000000000000000000000
0100000000000000001111000000001110000111000000001110000011100001111000
0000111100001110000111000100010100001110000000111000011110001111000000
0111000011100000001111000000000000000000000000000010011100000000111000
0111000001100000011000000000000000000000000000000000000010001110000000
1010000111000000001110000111000000001110000000000000000000000000000000
0000000000000000000000001110000111000000001110000011100001111000000001
1100001110000110000000000000001110100000001000011100001110000000011100
0011100000000111000000000000000000000000000000010100000000011100011100
0011100000111101000000000000000000000000000000000000001100001000000000
0111000000000111000111000000001110000000000000000000000000000000000000
0000000000000000001110000111000000001110000011100001110000000001110000
1110000111100000000000001110000000000000011100001110000000011100001110
0000000111010000000000000000000000000000011100000000011100011100001110
0000011000000000000000100000000000000000000000001111000000000100011100
0000000111000111000000001110000000000000000000000000000000000000000000
0000010111111110001110000000001110000011100001110000100001110000111000
0111111000000000011100000000000010011100001110000010001110011100000000
0111000000000000000000000100000000111101010101011100011100001110000011
1100000000000000000010000000000000000000001111010000000000111101010101
0111001110000000001110100000000000000000000000000100000100000000000101
0111111110001111000000001110000011100001110000000001110000111000000111
1111100000001110010000000000011100000110000001011100011100000000011100
0000000000000000000000000000011111111111111100011100001110100001100000
0000000000000000100000000000000000000011111111000000011111111111111100
1111000000001110000000000000000000000000000000000000000000001111000000
1110000110000000001110000011100001110000000001100000111000000001111111
1000011100000000000000011100001110000000001100001110000000011100000000
0000000000000000000000111111111110111100011100001110000011110000000000
0000000000000000000000000000000000111111110000111111111111111100011000
0000001110000000000000000000000000000000000000000000011110000000111000
1111000000001110000011100001110000000001110000111000000000001111110000
1110000000000000011100001110000000011100011100000000011100000000001000
0000000000000000011000000000000000011100001110000001100000000000000000
0000000000000000000000000000000111111000011000000000000010111100000000
1110000000000000000000000000000000010000000000011100000000111000011000
0000001110000011000001111000000001110000111000000000000001110001110000
0000000000011100001110000000001110001110000000011100000000000000000000
0000000000111100000000000000011100011110000011110000000000000000000000
0000000000000000000000000000111000111100000000000000011000000000111000
0000001000010000100000000000000000000000111100000000011001011100000000
1110000011100001111000000001110010111000000000000001111000111000000001
0000011100001110000000011100001110000000011100000000000000000000000000
0000011100001000000000011100001110100001100000000000000000000000000000
0000000000000000000000111000011100000000000000011100000000111000000000
0000000000000000000000000000000000011000000001111000011100000000111000
0011100001111000000011110000111000010000001000011000111000000001110001
1100001110000000001100001110000000111100000000000000000000000000000001
1100000000000000011100001110000011110000000000000000000000000000000000
0000001000000000011100111100000000000000011100000000111000000000000000
0000000000000000000000000000011100000011111000011100000001111000001110
0001111000000011100000111000111000000001110000111100000011100101110000
1110000000011110001110000001111100000000000000000001000000000000111100
0000111000011101001110001001110000001010000000000000000000001000000001
1100000000111000001110000000111000011100000101111000000000001000000000
0000000000000000000000011100000110111000001111000011111000001110000111
1100000111100000111000011100000011110000011110000111100001110000111000
0000001100000111100011111100000000000000100000000000000000111100000111
1000011100001110000001110000001110000000000000000000000000000000111000
0001111000001111000001111000001111000011111000000000000000000000000000
0000000000000000011111111110011111001111111111011000001110000111011111
1111000000111000011111111111100000001111111111000001110000111000000101
1100000111111111011100000000000000000000000000000000011111111111000001
1100001110000001111110101110000000000000000000000000000000111111111111
0000000111111111110000001111111111011000000000000000000000010001000010
0000000000000111111000011110000011111100011000001110000111001111111000
0000111000000111111110000000000111111100000001110000111000000000110000
0001111100001100000000000000000000000000000000000111111100000001110000
1110000000111110001110000000000000000000000000000000001111111100000000
0001111111000000000011111100011000000000000000000000000000000000000000
0000000000000000001000000000000000000000000000000111000000000000000000
0000010000001000000000000010000001000000000000000000000000000000000001
0000011100000100000000000000000000000000000000000000000000000000000000
0000000000000110001000000000000000000010000000000000000000000000000000
0001000000000000000000000000000000100000000000000000000000000000000010
1000000000000000000000000000000000000000000111000000000000000000000000
0000000000000000100000000000000000000000000000000000000000000000000001
1100000001000000000000000000000000000000000000000000000000000000000010
0000000110000000000000000000010000000000000000000000000000000000000000
0000000000000000000000000000000000000000000000000000000000100000000000
0000000000000000010000000000000000000111000000000000000000001000000000
0000000000000000000000000000000000100000000000100000011000000001110000
0000000000000000001000001000000000010000000000000000100000000000000000
0110000000000000000000000000000000000000000000000000000010000000000000
0000000000000000000000000000000000000000000000000000010000000000000000
0000000000000000000000000000000111000000000000000000000000000000000000
0000000000000000000000010000000100000000000000111100000011110000000000
0000000000000000000000001000000000000000000000000000000100000000110000
0000000000000000000000001000000000000001000000010000000000000000000000
0000000000000000000000000000000000000000000000000000000001000000000000
0000000000000100000000000111000000000000000010000000000000000000000000
0001000000000000000000000000000000000000011111010111100000000000000000
0000000010000000000000000000000100000000000000000000000000000000000000
0000000000000000100000000000000000000000000000000000000000000000000000
0100000000000010000000000000000000000000000000000000000000000100000000
0000000000000000000111000000000000000000000000000000000000000000000000
0000000000000000000000000000000000001111111111000000000000000000000000
0000000000000000010000000000000000000000000000001000000000000000000000
0010000000000000000000000000000000000000000000000000000000000000000000
0000000000000000000000010000000000000000000000000000000000000001000000
0000000000000111000000000000000000000000000000000000000000000000000000
0000000000000000000000000000001001111100010000000000001000000000000000
0000000000000000000000000000000000000010000000000000000000000000000000
0000000000001000010000000000000000000000000000000000000000000000100000
0000000000000100000000000000000000000000000000100000000000000000000000
0000000000000000000000000000000000000000000000010000000000100010000000
0000000000000000000000000000000000000000000000000000000000000000000000
0000000000000000000000000000000000000000000000000000000000000000000000
0000000000000000000000000000000000001000000000000000000000000000000000
0000000000000000000000000000000000000000000000000000000000000000000000
0000000010000000000000000000010000000000000000000000000000000000000010
0000000000000000000000000000000100000000000000100000000001000000000000
0000001000000000100000000000000000000000000000000000000001000000000000
0000000000000001000000000000000000000000000000000000000000000000000000
0000000000000000000000000000000000000000000000000000000000000000000000
0000000000000000000010000000000000000000000000000000000000000000000001
0000000000000000000000000000000000000000000000000000000000000000000000
0000000000000000000000000000000000000000001000000000000000000000000000
0000000000000000000000000000000000000000000000000000000000000000000000
0000000000000000000000000000000000000000000000000000000000000000000000
0000000000000000000000000000000000000000000000000000000000000000000000
0000000000000000000000000000000000010100000000000000000000000000000000
0000000000000000000000000000000000000000000000001000000000000000000000
0000000000000000000000000000000000000000000000000000010000000000000010
0000000000001000000000000000000000000000000000000000100000000000000000
0001000000000000000000000000000000000000000000000000000000000000000000
0000000000000000000000000000000000000000000000000000000100000000000000
0000000000000000000000000000000000000000000000000000000000000000000000
0000000000000000100000000000000000000001000000